<svg viewBox="0 0 120 120" xmlns="http://www.w3.org/2000/svg">
  <defs>
    <linearGradient id="gemMinimal" x1="0%" y1="0%" x2="100%" y2="100%">
      <stop offset="0%" style="stop-color:#E63946;stop-opacity:1" />
      <stop offset="100%" style="stop-color:#A01628;stop-opacity:1" />
    </linearGradient>
    <linearGradient id="sunMinimal" x1="0%" y1="0%" x2="100%" y2="100%">
      <stop offset="0%" style="stop-color:#FFD60A;stop-opacity:1" />
      <stop offset="100%" style="stop-color:#FFC300;stop-opacity:1" />
    </linearGradient>
  </defs>

  <g id="icon-minimal" transform="translate(60, 60)">
    <line x1="0" y1="-35" x2="0" y2="-22" stroke="#EBAF00" stroke-width="2.5" stroke-linecap="round"/>
    <line x1="24" y1="-24" x2="33" y2="-33" stroke="#EBAF00" stroke-width="2.5" stroke-linecap="round"/>
    <line x1="35" y1="0" x2="48" y2="0" stroke="#EBAF00" stroke-width="2.5" stroke-linecap="round"/>
    <line x1="24" y1="24" x2="33" y2="33" stroke="#EBAF00" stroke-width="2.5" stroke-linecap="round"/>
    <line x1="0" y1="35" x2="0" y2="48" stroke="#EBAF00" stroke-width="2.5" stroke-linecap="round"/>
    <line x1="-24" y1="24" x2="-33" y2="33" stroke="#EBAF00" stroke-width="2.5" stroke-linecap="round"/>
    <line x1="-35" y1="0" x2="-48" y2="0" stroke="#EBAF00" stroke-width="2.5" stroke-linecap="round"/>
    <line x1="-24" y1="-24" x2="-33" y2="-33" stroke="#EBAF00" stroke-width="2.5" stroke-linecap="round"/>

    <circle cx="0" cy="0" r="18" fill="url(#sunMinimal)" />

    <g id="gem-minimal">
      <polygon points="-15,12 15,12 0,-3" fill="#C41E3A"/>
      <polygon points="-17,22 17,22 13,42 -13,42" fill="#B91A35"/>
      <polygon points="-13,42 13,42 0,62" fill="#A01628"/>
      <polygon points="-4,24 4,24 0,32" fill="#FF6B7A" opacity="0.5"/>
    </g>
  </g>
</svg>
