<svg viewBox="0 0 290 120" xmlns="http://www.w3.org/2000/svg">
  <!-- VERSIÓN MONOCROMO BLANCO (para fondos oscuros) -->
  <g id="icon-white" transform="translate(42,60) scale(0.7) translate(-60,-70)">
    <line x1="60" y1="10" x2="60" y2="30" stroke="#FFFFFF" stroke-width="3.5" stroke-linecap="round"/>
    <line x1="85" y1="15" x2="100" y2="30" stroke="#FFFFFF" stroke-width="3.5" stroke-linecap="round"/>
    <line x1="100" y1="40" x2="110" y2="55" stroke="#FFFFFF" stroke-width="3.5" stroke-linecap="round"/>
    <line x1="100" y1="65" x2="110" y2="80" stroke="#FFFFFF" stroke-width="3.5" stroke-linecap="round"/>
    <line x1="85" y1="90" x2="100" y2="105" stroke="#FFFFFF" stroke-width="3.5" stroke-linecap="round"/>
    <line x1="60" y1="95" x2="60" y2="115" stroke="#FFFFFF" stroke-width="3.5" stroke-linecap="round"/>
    <line x1="35" y1="90" x2="20" y2="105" stroke="#FFFFFF" stroke-width="3.5" stroke-linecap="round"/>
    <line x1="20" y1="65" x2="10" y2="80" stroke="#FFFFFF" stroke-width="3.5" stroke-linecap="round"/>
    <line x1="20" y1="40" x2="10" y2="55" stroke="#FFFFFF" stroke-width="3.5" stroke-linecap="round"/>
    <line x1="35" y1="15" x2="20" y2="30" stroke="#FFFFFF" stroke-width="3.5" stroke-linecap="round"/>

    <circle cx="60" cy="55" r="25" fill="#FFFFFF" />

    <g id="gem-white">
      <polygon points="40,65 80,65 60,45" fill="#FFFFFF"/>
      <polygon points="35,75 85,75 80,105 40,105" fill="#FFFFFF"/>
      <polygon points="40,105 80,105 60,130" fill="#FFFFFF"/>
    </g>
  </g>

  <line x1="92" y1="30" x2="92" y2="90" stroke="#FFFFFF" stroke-width="2"/>

  <text x="108" y="63" font-family="Montserrat, Arial, sans-serif" font-size="42" font-weight="900" fill="#FFFFFF" letter-spacing="-1">EL RUBÍ</text>
  <text x="108" y="87" font-family="Inter, Arial, sans-serif" font-size="13" font-weight="400" fill="#FFFFFF" opacity="0.8" letter-spacing="1">PLANTA MINERA</text>
</svg>
